<svg xmlns="http://www.w3.org/2000/svg" height="512pt" viewBox="-34 0 512 512" width="512pt"><path d="m434.347656 221.71875c-5.519531 0-10 4.476562-10 10v30.566406c0 36.035156-14.050781 69.894532-39.570312 95.34375l-20.625 20.566406c-1.882813 1.875-2.941406 4.421876-2.941406 7.078126v116.726562c0 5.523438 4.480468 10 10 10 5.523437 0 10-4.476562 10-10v-112.574219l17.6875-17.636719c29.3125-29.226562 45.453124-68.113281 45.453124-109.503906v-30.566406c-.003906-5.523438-4.480468-10-10.003906-10zm0 0"></path><path d="m434.351562 181.71875c-2.632812 0-5.210937 1.070312-7.070312 2.929688-1.859375 1.863281-2.929688 4.441406-2.929688 7.070312 0 2.632812 1.070313 5.210938 2.929688 7.070312 1.859375 1.859376 4.4375 2.929688 7.070312 2.929688 2.628907 0 5.207032-1.070312 7.070313-2.929688 1.855469-1.859374 2.929687-4.4375 2.929687-7.070312 0-2.628906-1.070312-5.207031-2.929687-7.070312-1.863281-1.859376-4.441406-2.929688-7.070313-2.929688zm0 0"></path><path d="m10 .261719c-2.628906 0-5.210938 1.066406-7.070312 2.929687-1.859376 1.859375-2.929688 4.4375-2.929688 7.070313 0 2.628906 1.070312 5.207031 2.929688 7.066406 1.859374 1.859375 4.441406 2.933594 7.070312 2.933594s5.210938-1.070313 7.070312-2.933594c1.867188-1.859375 2.929688-4.4375 2.929688-7.066406 0-2.632813-1.0625-5.210938-2.929688-7.070313-1.859374-1.863281-4.441406-2.929687-7.070312-2.929687zm0 0"></path><path d="m377.890625 309.007812c5.121094-5.125 7.945313-11.9375 7.945313-19.183593 0-3.957031-.847657-7.777344-2.445313-11.269531 2.617187-1.28125 5.070313-2.996094 7.242187-5.167969 10.574219-10.578125 10.574219-27.789063 0-38.367188l-36.796874-36.792969c7.351562-1.015624 14.257812-4.96875 18.800781-11.453124 4.273437-6.101563 5.875-13.5 4.507812-20.824219-1.371093-7.324219-5.53125-13.644531-11.722656-17.796875l-38.503906-25.820313c-.144531-.097656-.292969-.1875-.4375-.28125v-56.667969c1.011719-9.820312 9.332031-17.503906 19.414062-17.503906 10.765625 0 19.519531 8.757813 19.519531 19.519532v47.601562c0 5.523438 4.480469 10 10 10 5.523438 0 10-4.476562 10-10v-18.773438c1.011719-9.820312 9.332032-17.503906 19.414063-17.503906 10.765625 0 19.519531 8.757813 19.519531 19.519532v53.476562c0 5.523438 4.480469 10 10 10 5.523438 0 10-4.476562 10-10v-53.476562c0-21.792969-17.726562-39.519532-39.519531-39.519532-7.117187 0-13.796875 1.902344-19.574219 5.210938-1.761718-20.175782-18.734375-36.054688-39.355468-36.054688-7.257813 0-14.0625 1.972656-19.914063 5.402344-3-18.835938-19.351563-33.28125-39.019531-33.28125-19.671875 0-36.023438 14.445312-39.023438 33.28125-5.851562-3.425781-12.652344-5.402344-19.914062-5.402344-14.472656 0-27.382813 7.929688-34.265625 19.863282l-44.679688-44.679688c-3.90625-3.90625-10.234375-3.90625-14.140625 0s-3.90625 10.238281 0 14.140625l106.316406 106.320313c1.875 1.875 4.417969 2.929687 7.070313 2.929687h.015625l26.152344-.039063h.105468c14.714844 0 28.953126 4.332032 41.175782 12.527344l38.503906 25.820313c1.691406 1.132812 2.824219 2.859375 3.199219 4.855469.375 2-.0625 4.019531-1.230469 5.6875-2.261719 3.226562-6.671875 4.15625-10.039062 2.113281l-16.644532-10.09375c-5.503906-3.335938-12.378906-2.078125-16.347656 2.984375s-3.546875 12.035156 1 16.582031l62.269531 62.269531c2.777344 2.78125 2.777344 7.304688 0 10.082032-2.570312 2.570312-6.625 2.757812-9.417969.578124l-32.554687-32.550781c-3.90625-3.902343-10.234375-3.902343-14.140625 0-.007812.007813-.011719.011719-.015625.015625-.011719.011719-.019531.019532-.027344.027344-3.90625 3.90625-3.90625 10.238281 0 14.140625l31.929688 31.933594c.410156.410156.832031.796875 1.261719 1.175781l10.222656 10.222656c1.34375 1.347656 2.085937 3.136719 2.085937 5.039063 0 1.90625-.742187 3.695312-2.089843 5.042969-2.777344 2.777343-7.300782 2.777343-10.082032 0l-10.21875-10.21875c-.378906-.429688-.765625-.855469-1.175781-1.265626l-31.929687-31.929687c-3.90625-3.902344-10.238282-3.902344-14.144532 0-.007812.007813-.011718.015625-.019531.023437-.007813.007813-.015625.011719-.023437.019532-3.90625 3.90625-3.90625 10.238281 0 14.144531l32.554687 32.554687c2.179687 2.792969 1.988281 6.84375-.582031 9.414063-2.777344 2.777344-7.304688 2.777344-10.082032 0l-11.4375-11.4375c-.378906-.433594-.765624-.855469-1.175781-1.261719l-19.273437-19.273437c-3.90625-3.90625-10.238282-3.90625-14.144532 0-.007812.007812-.015624.015625-.023437.023437-.003906.007813-.011719.011719-.015625.019532-3.90625 3.902343-3.90625 10.234374 0 14.140624l19.894531 19.898438c.976563 1.246094 1.507813 2.765625 1.507813 4.375 0 1.902344-.742188 3.691406-2.089844 5.039062-2.777344 2.78125-7.300781 2.777344-10.082031 0l-67.308594-67.308593c-13.789063-13.792969-21.683594-32.886719-21.65625-52.386719l.023437-16.902344c.003907-2.65625-1.046874-5.207031-2.929687-7.085937l-14.511719-14.511719c0-.003906-.003906-.007812-.007812-.007812l-129.453125-129.457032c-3.90625-3.90625-10.234375-3.90625-14.140625 0-3.90625 3.902344-3.90625 10.234375 0 14.140625l110.519531 110.519531c-9.046875 2.535157-16.835937 8.097657-22.21875 15.957032-6.152344 8.976562-8.382813 19.800781-6.277344 30.476562l15.457031 78.382813c5.972657 30.277343 20.679688 57.796875 42.527344 79.585937l28.976563 28.890625v112.574219c0 5.523438 4.476562 10 10 10 5.519531 0 10-4.476562 10-10v-116.726562c0-2.65625-1.058594-5.203126-2.9375-7.078126l-31.914063-31.824218c-19.027344-18.96875-31.828125-42.929688-37.027344-69.292969l-15.457031-78.378906c-1.058593-5.363281.0625-10.796875 3.152344-15.304688 3.085937-4.507812 7.753906-7.511719 13.132813-8.460937 2.949218-.523438 5.898437-.390625 8.761718.382812l4.390625 1.382813 9.957031 9.957031-.019531 12.75c-.035156 24.777344 9.992188 49.039062 27.515625 66.558594l13.097656 13.097656 54.210938 54.214844c5.289062 5.289062 12.238281 7.933594 19.183594 7.933594 6.949218 0 13.898437-2.644532 19.1875-7.933594 2.011718-2.015625 3.664062-4.289063 4.933594-6.75 3.964843 2.101562 8.34375 3.15625 12.722656 3.15625 6.945312 0 13.894531-2.644532 19.183594-7.933594 2.171874-2.175781 3.890624-4.628906 5.171874-7.246094 3.566407 1.621094 7.414063 2.4375 11.265626 2.4375 6.941406 0 13.890624-2.644531 19.179687-7.933594zm-168.878906-246.019531c2.011719-8.730469 9.882812-15.109375 19.019531-15.109375 10.082031 0 18.40625 7.6875 19.414062 17.507813v36.039062zm65.457031 43.425781-6.921875.011719v-39.027343c0-.914063-.039063-1.816407-.101563-2.714844v-25.164063c0-10.761719 8.753907-19.519531 19.519532-19.519531 10.761718 0 19.515625 8.757812 19.515625 19.519531v25.152344c-.058594.902344-.101563 1.808594-.101563 2.726563v44.554687c-10.125-3.644531-20.84375-5.539063-31.777344-5.539063-.042968 0-.089843 0-.132812 0zm0 0"></path></svg>