<svg xmlns="http://www.w3.org/2000/svg" xmlns:xlink="http://www.w3.org/1999/xlink" id="Capa_1" x="0px" y="0px" viewBox="0 0 511.795 511.795" style="enable-background:new 0 0 511.795 511.795;" xml:space="preserve">
<g>
	<g>
		<g>
			<path d="M510.423,90.995c-2.4-4-7.2-4.8-11.2-2.4l-120,80c-0.8,0.8-1.6,1.6-2.4,2.4l-73.6,112l-14.4,2.4l37.6-107.2     c1.6-4-0.8-8.8-4.8-10.4c-4-1.6-8.8,0.8-10.4,4.8l-11.2,35.2h-68v-16.8l108.8-80.8c3.2-2.4,4-8,1.6-11.2c-2.4-3.2-8-4-11.2-1.6     l-112,83.2c-2.4,1.6-3.2,4-3.2,6.4v20.8h-14.4c-1.6,0-3.2,0.8-4,0.8l-193.6,120c-4,2.4-4.8,8-2.4,11.2c0.8,2.4,4,4,6.4,4     c1.6,0,3.2,0,4-0.8l192-119.2h20h70.4l-24,69.6c-0.8,2.4-0.8,5.6,1.6,8c1.6,1.6,4,3.2,6.4,3.2h0.8l31.2-4.8c2.4,0,4-1.6,5.6-3.2     l47.2-72h19.2l-7.2,24h-23.2c-4.8,0-8,3.2-8,8c0,4.8,3.2,8,8,8h17.6l-1.6,7.2h-24c-4.8,0-8,3.2-8,8s3.2,8,8,8h19.2l-2.4,8h-0.8     h-24c-4.8,0-8,3.2-8,8s3.2,8,8,8h20l-2.4,8h-152c-1.6,0-4,0.8-5.6,2.4l-163.2,144.8c-3.2,3.2-3.2,8-0.8,11.2     c1.6,1.6,4,2.4,5.6,2.4c1.6,0,4-0.8,5.6-2.4l75.2-67.2c38.4,34.4,87.2,52.8,137.6,52.8c114.4,0,208-93.6,208-208     c0-36.8-9.6-72.8-28.8-104.8l72.8-48.8C512.023,99.795,512.823,94.995,510.423,90.995z M232.023,335.795h104v16h-104V335.795z      M448.023,255.795c0,105.6-86.4,192-192,192c-46.4,0-90.4-16.8-124.8-46.4l73.6-65.6h11.2v24c0,4.8,3.2,8,8,8h120     c4.8,0,8-3.2,8-8v-24h8c3.2,0,6.4-2.4,8-5.6l32-112c0.8-2.4,0-4.8-1.6-7.2c-1.6-2.4-4-3.2-6.4-3.2h-19.2l16.8-26.4l32.8-21.6     C439.223,188.595,448.023,222.195,448.023,255.795z"></path>
			<path d="M383.223,79.795c1.6,0,3.2-0.8,4.8-1.6l88.8-64c3.2-2.4,4-7.2,1.6-11.2c-2.4-3.2-7.2-4-11.2-1.6l-88.8,64     c-3.2,2.4-4,7.2-1.6,11.2C378.423,78.995,380.823,79.795,383.223,79.795z"></path>
			<path d="M147.223,95.795c1.6,0,3.2-0.8,4-1.6c32-20,68-30.4,104.8-30.4c35.2,0,69.6,9.6,100,28c4,2.4,8.8,0.8,11.2-2.4     c2.4-4,0.8-8.8-2.4-11.2c-32.8-20-70.4-30.4-108.8-30.4c-40,0-79.2,11.2-112.8,33.6c-4,2.4-4.8,7.2-2.4,11.2     C142.423,94.195,144.823,95.795,147.223,95.795z"></path>
			<path d="M57.623,287.795h0.8c4-0.8,7.2-4.8,7.2-8.8c-0.8-8-1.6-15.2-1.6-23.2c0-49.6,19.2-97.6,53.6-133.6c3.2-3.2,3.2-8,0-11.2     c-3.2-3.2-8-3.2-11.2,0c-37.6,39.2-58.4,90.4-58.4,144.8c0,8,0.8,16.8,1.6,24.8C50.423,284.595,53.623,287.795,57.623,287.795z"></path>
			<path d="M10.423,490.195l-8,8c-3.2,3.2-3.2,8,0,11.2c1.6,1.6,3.2,2.4,5.6,2.4s4-0.8,5.6-2.4l8-8c3.2-3.2,3.2-8,0-11.2     C18.423,486.995,13.623,486.995,10.423,490.195z"></path>
		</g>
	</g>
</g>
<g>
</g>
<g>
</g>
<g>
</g>
<g>
</g>
<g>
</g>
<g>
</g>
<g>
</g>
<g>
</g>
<g>
</g>
<g>
</g>
<g>
</g>
<g>
</g>
<g>
</g>
<g>
</g>
<g>
</g>
</svg>