<svg xmlns="http://www.w3.org/2000/svg" xmlns:xlink="http://www.w3.org/1999/xlink" id="Capa_1" x="0px" y="0px" viewBox="0 0 496 496" style="enable-background:new 0 0 496 496;" xml:space="preserve">
<g>
	<g>
		<g>
			<path d="M491.12,141L448,61.96V0h-16v66.04l45.072,82.624c1.92,3.512,2.928,7.496,2.928,11.496v61.856     c0,9.92-8.064,17.984-17.984,17.984c-8.832,0-16.296-6.32-17.744-15.032l-13.048-78.304L382.296,122.2l-14.864-37.176     l-14.856,5.944l17.136,42.824l47.072,23.536l11.712,70.264c1.92,11.52,9.464,20.728,19.504,25.272V312c0,8.824-7.176,16-16,16     c-8.824,0-16-7.176-16-16V208h-16v104v16c0,8.824-7.176,16-16,16c-8.824,0-16-7.176-16-16v-16v-45.608     c10.336-13.256,16-29.432,16-46.512c0-41.84-34.04-75.88-75.88-75.88c-12.824,0-25.152,3.176-36.12,9.128v-40.912     c0-14.264,4.184-28.072,12.096-39.936L304,42.424V0h-16v37.576l-17.216,25.832C261.112,77.912,256,94.792,256,112.224v52.608     c-0.504,0.48-1.048,0.904-1.536,1.392L248,172.688l-6.464-6.464C227.208,151.896,208.152,144,187.88,144     c-18.104,0-34.728,6.392-47.784,17.008C134.696,150.944,124.2,144,112,144c-13.952,0-25.712,9.024-30.088,21.504     C76.8,162.032,70.632,160,64,160c-17.648,0-32,14.352-32,32v56.2c-17.8,1.048-32,15.728-32,33.784v61.856     c0,6.672,1.688,13.296,4.88,19.16L48,442.04V496h16v-58.04l-45.072-82.624C17.008,351.824,16,347.84,16,343.84v-61.856     C16,272.064,24.064,264,33.984,264c8.832,0,16.296,6.32,17.744,15.032l13.048,78.304l48.928,24.464l14.864,37.176l14.856-5.944     l-17.136-42.824l-47.072-23.536L67.504,276.4c-1.912-11.52-9.456-20.72-19.504-25.272V192c0-8.824,7.176-16,16-16     c8.824,0,16,7.176,16,16v104h16V192v-16c0-8.824,7.176-16,16-16c8.056,0,14.664,6,15.776,13.752     C117.928,186.552,112,202.52,112,219.88c0,17.08,5.664,33.256,16,46.512V296h16v-12.688l57.376,57.376     c6.552,6.552,14.248,11.504,22.624,14.776v36.32c0,14.264-4.184,28.072-12.096,39.936L192,461.576V496h16v-29.576l17.216-25.832     C234.888,426.088,240,409.208,240,391.776v-32.312c2.64,0.32,5.304,0.536,8,0.536c17.616,0,34.168-6.856,46.624-19.312     l13.424-13.424C313.488,337.184,323.912,344,336,344c6.632,0,12.8-2.032,17.912-5.504C358.288,350.976,370.048,360,384,360     c13.952,0,25.712-9.024,30.088-21.504C419.2,341.968,425.368,344,432,344c17.648,0,32-14.352,32-32v-56.2     c17.8-1.048,32-15.728,32-33.784V160.16C496,153.488,494.312,146.864,491.12,141z M352,312c0,8.824-7.176,16-16,16     c-7.792,0-14.28-5.608-15.696-12.992L352,283.312V312z M350.464,262.224l-67.152,67.152C273.88,338.808,261.336,344,248,344     s-25.88-5.192-35.312-14.624l-67.152-67.152C134.232,250.912,128,235.88,128,219.88c0-33.016,26.864-59.88,59.88-59.88     c16,0,31.032,6.232,42.344,17.536L248,195.312l17.776-17.776C277.088,166.232,292.12,160,308.12,160     c33.016,0,59.88,26.864,59.88,59.88C368,235.88,361.768,250.912,350.464,262.224z"></path>
			<path d="M168.168,239.608c-5.264-5.272-8.168-12.28-8.168-19.728c0-15.376,12.504-27.88,27.88-27.88v-16     c-24.192,0-43.88,19.688-43.88,43.88c0,11.712,4.56,22.736,12.848,31.032l44.904,44.904l11.312-11.312L168.168,239.608z"></path>
			
				<rect x="215.963" y="298.771" transform="matrix(-0.7071 -0.7071 0.7071 -0.7071 165.4767 682.0845)" width="16.08" height="16"></rect>
			<rect x="208" y="80" width="16" height="16"></rect>
			<rect x="208" y="112" width="16" height="16"></rect>
			<rect x="224" y="96" width="16" height="16"></rect>
			<rect x="192" y="96" width="16" height="16"></rect>
			<rect x="272" y="376" width="16" height="16"></rect>
			<rect x="272" y="408" width="16" height="16"></rect>
			<rect x="288" y="392" width="16" height="16"></rect>
			<rect x="256" y="392" width="16" height="16"></rect>
			<rect x="296" y="192" width="16" height="16"></rect>
			<rect x="296" y="224" width="16" height="16"></rect>
			<rect x="312" y="208" width="16" height="16"></rect>
			<rect x="280" y="208" width="16" height="16"></rect>
		</g>
	</g>
</g>
<g>
</g>
<g>
</g>
<g>
</g>
<g>
</g>
<g>
</g>
<g>
</g>
<g>
</g>
<g>
</g>
<g>
</g>
<g>
</g>
<g>
</g>
<g>
</g>
<g>
</g>
<g>
</g>
<g>
</g>
</svg>